<?xml version="1.0" standalone="no"?>
<!DOCTYPE svg PUBLIC "-//W3C//DTD SVG 20010904//EN"
 "http://www.w3.org/TR/2001/REC-SVG-20010904/DTD/svg10.dtd">
<svg version="1.0" xmlns="http://www.w3.org/2000/svg"
 width="700.000000pt" height="700.000000pt" viewBox="0 0 700.000000 700.000000"
 preserveAspectRatio="xMidYMid meet">
<metadata>
Created by potrace 1.14, written by Peter Selinger 2001-2017
</metadata>
<g transform="translate(0.000000,700.000000) scale(0.100000,-0.100000)"
fill="#000000" stroke="none">
<path d="M1829 6436 c-2 -2 -28 -7 -57 -10 -167 -20 -375 -92 -527 -184 -54
-32 -153 -102 -181 -127 -172 -154 -270 -280 -366 -470 -26 -51 -84 -208 -92
-248 -3 -12 -12 -53 -22 -92 -17 -65 -18 -181 -20 -1770 -3 -1842 -5 -1763 51
-1960 76 -265 232 -505 442 -682 32 -26 60 -50 63 -53 3 -3 12 -9 21 -15 9 -5
34 -22 56 -37 113 -75 276 -148 410 -182 57 -15 77 -19 158 -34 51 -9 3393 -9
3461 0 465 64 871 360 1074 783 53 110 79 185 112 320 l22 90 3 1695 c1 1053
-2 1718 -8 1755 -5 33 -11 71 -13 85 -11 72 -59 223 -99 310 -36 79 -107 204
-119 208 -4 2 -8 9 -8 15 0 7 -13 26 -28 44 -15 18 -45 54 -67 80 -56 68 -191
187 -277 245 -147 98 -285 158 -478 206 l-105 26 -1701 3 c-935 2 -1702 1
-1705 -1z m2814 -858 c194 -69 336 -223 382 -413 12 -51 14 -303 12 -1690 l-2
-1630 -24 -65 c-13 -36 -29 -72 -35 -80 -7 -8 -18 -27 -25 -41 -18 -36 -108
-128 -156 -161 -54 -36 -139 -73 -200 -86 -67 -15 -2107 -15 -2185 -1 -182 34
-352 182 -421 369 l-24 65 -3 1615 c-2 1124 0 1634 8 1678 38 223 219 406 445
452 22 4 522 7 1110 6 976 -1 1074 -3 1118 -18z"/>
<path d="M2452 5160 c-18 -11 -41 -34 -52 -52 -19 -31 -20 -49 -17 -355 2
-308 3 -323 23 -350 11 -15 36 -36 55 -45 32 -17 102 -18 1045 -18 l1011 0 34
23 c68 45 70 55 67 409 -3 302 -4 318 -24 345 -11 15 -36 36 -55 45 -32 17
-102 18 -1044 18 -990 0 -1011 0 -1043 -20z"/>
<path d="M2581 4049 c-206 -60 -267 -335 -105 -478 112 -98 274 -93 379 14 62
62 85 120 81 207 -6 179 -182 306 -355 257z"/>
<path d="M3405 4042 c-73 -24 -145 -99 -169 -176 -42 -133 13 -267 138 -336
54 -29 159 -35 222 -12 190 70 243 314 99 457 -79 80 -181 103 -290 67z"/>
<path d="M4239 4041 c-59 -21 -139 -102 -161 -163 -10 -29 -16 -71 -14 -110 8
-243 299 -356 471 -183 54 54 85 124 85 195 0 114 -84 230 -191 263 -65 21
-127 20 -190 -2z"/>
<path d="M2581 3209 c-84 -25 -158 -97 -185 -181 -70 -218 131 -421 350 -352
82 25 153 96 178 178 67 213 -129 416 -343 355z"/>
<path d="M3399 3201 c-59 -21 -139 -102 -161 -163 -53 -149 29 -316 177 -363
187 -58 369 81 361 277 -7 190 -194 313 -377 249z"/>
<path d="M4245 3203 c-102 -35 -185 -153 -185 -263 0 -148 132 -280 280 -280
112 0 229 84 263 189 21 67 22 115 0 180 -46 144 -212 224 -358 174z"/>
<path d="M2581 2369 c-239 -69 -269 -404 -45 -519 l48 -25 495 0 496 0 49 25
c171 88 207 310 71 445 -85 86 -82 85 -619 84 -264 0 -475 -5 -495 -10z"/>
<path d="M4261 2369 c-239 -69 -269 -404 -46 -519 68 -35 180 -35 249 0 60 31
116 92 138 153 23 64 18 164 -13 224 -59 116 -203 177 -328 142z"/>
</g>
</svg>
